HIERARCHY
ROOT Hips
{
  OFFSET -316.378 98.9526 316.599
  CHANNELS 6 Xposition Yposition Zposition Zrotation Xrotation Yrotation
  JOINT ToSpine
  {
    OFFSET -2.69724 7.43032 -0.144315
    CHANNELS 3 Zrotation Xrotation Yrotation
    JOINT Spine
    {
      OFFSET -0.0310711 10.7595 1.96963
      CHANNELS 3 Zrotation Xrotation Yrotation
      JOINT Spine1
      {
        OFFSET 19.9056 3.91189 0.764692
        CHANNELS 3 Zrotation Xrotation Yrotation
        JOINT Neck
        {
          OFFSET 25.9749 7.03908 -0.130764
          CHANNELS 3 Zrotation Xrotation Yrotation
          JOINT Head
          {
            OFFSET 9.52751 0.295786 -0.907742
            CHANNELS 3 Zrotation Xrotation Yrotation
            End Site
            {
              OFFSET 16.4037 0.713936 2.7358
            }
          }
        }
        JOINT LeftShoulder
        {
          OFFSET 17.7449 4.33886 11.7777
          CHANNELS 3 Zrotation Xrotation Yrotation
          JOINT LeftArm
          {
            OFFSET 0.911315 1.27913 9.80584
            CHANNELS 3 Zrotation Xrotation Yrotation
            JOINT LeftForeArm
            {
              OFFSET 28.6126 1.18197 -3.53199
              CHANNELS 3 Zrotation Xrotation Yrotation
              JOINT LeftHand
              {
                OFFSET 27.5088 0.0218783 0.327423
                CHANNELS 3 Zrotation Xrotation Yrotation
                End Site
                {
                  OFFSET 18.6038 -0.000155887 0.382096
                }
              }
            }
          }
        }
        JOINT RightShoulder
        {
          OFFSET 17.1009 2.89543 -12.2328
          CHANNELS 3 Zrotation Xrotation Yrotation
          JOINT RightArm
          {
            OFFSET 1.4228 0.178766 -10.211
            CHANNELS 3 Zrotation Xrotation Yrotation
            JOINT RightForeArm
            {
              OFFSET 28.733 1.87905 2.64907
              CHANNELS 3 Zrotation Xrotation Yrotation
              JOINT RightHand
              {
                OFFSET 27.4588 0.290562 -0.101845
                CHANNELS 3 Zrotation Xrotation Yrotation
                End Site
                {
                  OFFSET 17.8396 -0.255518 -0.000602873
                }
              }
            }
          }
        }
      }
    }
  }
  JOINT LeftUpLeg
  {
    OFFSET -5.61296 -2.22332 -10.2353
    CHANNELS 3 Zrotation Xrotation Yrotation
    JOINT LeftLeg
    {
      OFFSET 2.56703 -44.7417 -7.93097
      CHANNELS 3 Zrotation Xrotation Yrotation
      JOINT LeftFoot
      {
        OFFSET 3.16933 -46.5642 -3.96578
        CHANNELS 3 Zrotation Xrotation Yrotation
        JOINT LeftToeBase
        {
          OFFSET 0.346054 -6.02161 12.8035
          CHANNELS 3 Zrotation Xrotation Yrotation
          End Site
          {
            OFFSET 0.134235 -1.35082 5.13018
          }
        }
      }
    }
  }
  JOINT RightUpLeg
  {
    OFFSET -5.7928 -1.72406 10.6446
    CHANNELS 3 Zrotation Xrotation Yrotation
    JOINT RightLeg
    {
      OFFSET -2.57161 -44.7178 -7.85259
      CHANNELS 3 Zrotation Xrotation Yrotation
      JOINT RightFoot
      {
        OFFSET -3.10148 -46.5936 -4.03391
        CHANNELS 3 Zrotation Xrotation Yrotation
        JOINT RightToeBase
        {
          OFFSET -0.0828122 -6.13587 12.8035
          CHANNELS 3 Zrotation Xrotation Yrotation
          End Site
          {
            OFFSET -0.131328 -1.35082 5.13018
          }
        }
      }
    }
  }
}
MOTION
Frames:	10
Frame Time:	0.0333333
-72.8386 91.4387 86.6667 49.674 50.5329 26.5533 -70.1915 0 88.8779 147.502 59.5087 -71.3789 -2.38334 25.2234 3.74928 -161.99 27.5179 175.077 -149.03 65.5706 171.615 1.18742 -9.3796 -42.2595 -94.6209 35.0763 -94.4892 -13.3444 25.4364 1.58098 12.8499 -0.404645 -1.86138 -0.898932 2.08308 54.7283 -57.8753 -10.6433 129.659 0.165858 4.99572 28.266 22.9163 -0.22022 -1.4805 -13.3125 -14.9686 94.1292 -3.79302 62.2615 5.82366 12.4836 10.1548 -1.97611 -21.8976 -47.1178 -2.83997 -43.4431 -0.519133 79.1254 44.3987 85.2161 -41.3478 -8.97918 -2.13384 1.24669 -11.2496 -36.751 -18.3088 
-69.5461 91.1924 83.3144 50.1873 50.9325 26.3926 -70.1915 0 88.8779 148.487 58.0488 -71.9167 -1.94955 25.1292 3.20349 -164.471 27.6206 175.314 -148.284 65.5678 170.571 0.938513 -10.2098 -42.5466 -90.5128 31.3981 -101.944 -12.5695 24.8851 -0.657107 15.2059 -0.490061 -1.93855 -1.13893 2.81272 53.2398 -57.5506 -6.81884 133.467 -0.6853 7.76299 24.78 21.8602 -0.180099 -1.3236 -15.7438 -15.4146 93.1074 -4.12104 64.5303 7.36072 13.2756 10.2642 -2.14481 -26.53 -51.5918 -7.32599 -32.8098 -0.668952 82.3677 104.789 86.5171 -104.615 -9.02911 -2.70736 1.24781 -12.7367 -39.3869 -19.6851 
-66.19 91.202 80.1343 52.1797 51.6257 26.206 -70.1915 0 88.8779 150.439 56.094 -72.4687 -2.11912 25.0084 3.22222 -166.057 27.9985 175.199 -146.624 65.6189 168.164 0.716421 -10.9692 -41.7054 -89.8401 27.3275 -109.672 -11.837 25.3711 -1.81385 15.5711 -0.586367 -2.54227 -1.24114 3.2654 51.4081 -60.9465 -3.51379 137.162 -1.98903 7.5321 21.6521 20.9972 0.214783 0.832404 -19.7407 -14.5132 91.5908 -4.56238 66.2892 8.09854 14.2939 10.6188 -2.37487 -31.9206 -55.7649 -12.331 -23.1966 0.19384 85.1593 88.8627 86.9207 -91.4591 -8.59931 -3.86612 1.20164 -12.7594 -39.2377 -20.0241 
-62.638 91.1691 76.9641 53.4052 54.0264 27.6721 -70.1915 0 88.8779 151.583 53.8131 -71.6577 -3.08103 23.8904 4.03579 -164.799 27.7421 173.51 -144.564 64.8109 166.336 0.490252 -11.8662 -39.5254 -90.3321 22.9541 -117.928 -11.0121 24.3837 -3.01477 17.4186 -0.500806 -1.5451 -1.35649 3.95954 48.3529 -70.7129 -5.71303 141.866 -4.29555 1.1659 16.864 20.4828 0.361555 1.70228 -24.3679 -14.1009 88.7035 -5.18198 67.9648 8.43226 14.8954 10.5584 -2.49867 -37.1293 -58.5951 -17.5574 -15.6286 0.57605 87.3186 24.3676 83.496 -27.6561 -9.50097 -3.74198 1.28269 -12.8831 -39.2055 -20.5478 
-58.8505 91.4156 73.5857 54.5111 57.0416 30.3702 -70.1915 0 88.8779 153.645 51.4303 -70.184 -4.49107 22.9461 4.54033 -162.137 27.8624 169.951 -140.099 63.7055 161.754 0.158738 -13.4162 -36.5664 -94.0997 19.9625 -125.961 -9.91289 24.9237 -3.79231 20.9731 -0.339156 -0.131235 -1.31198 4.56856 43.4141 -83.1557 -11.49 145.82 -6.90911 -6.24344 11.2333 19.642 0.30226 1.44135 -29.7162 -13.2778 84.0101 -6.30036 69.73 7.78835 14.6648 11.3948 -2.49507 -41.0027 -61.4205 -20.0014 -10.8357 0.202061 88.83 8.54261 74.4264 -10.3336 -9.03336 -3.86873 1.23997 -12.3979 -39.5266 -18.1739 
-54.7928 91.9269 70.0618 53.8812 59.7256 33.9039 -70.1915 0 88.8779 154.63 50.8564 -68.399 -5.71571 22.3801 4.9788 -159.83 28.0258 166.204 -139.164 63.4388 159.187 -0.0778431 -14.9802 -33.2993 -95.5185 15.718 -134.921 -6.38317 24.8947 -7.76875 21.1542 -0.380949 -0.335482 -1.06487 4.96077 36.5911 -93.0892 -15.9903 147.715 -8.55821 -8.30652 7.04905 18.1246 0.355151 1.94389 -34.8019 -11.9262 79.7114 -6.8801 70.0272 6.51891 14.2772 12.1836 -2.45043 -44.9634 -63.3841 -23.2774 -7.13833 -1.05069 91.3485 4.52729 63.494 -2.84957 -8.22008 -3.02877 1.16819 -10.5905 -36.5639 -15.7689 
-50.0887 92.9733 66.1884 51.184 62.0961 38.8122 -70.1915 0 88.8779 154.597 50.9958 -67.0698 -7.55567 21.6959 6.24445 -157.732 28.3297 162.417 -138.075 63.5567 157.496 -0.0273937 -15.7501 -29.1887 -90.6965 5.97158 -143.48 0.471346 13.2691 -16.1205 22.7735 -0.369946 -0.133882 -0.723221 5.07562 29.5957 -99.8122 -14.8542 147.267 -8.06773 -10.4974 6.07833 14.5156 0.314701 2.2189 -39.9952 -9.93128 75.4288 -6.72882 68.5454 4.02904 12.8814 11.9843 -2.1293 -46.2126 -64.0899 -24.1337 -4.11036 -3.35845 93.8332 2.66206 53.0217 -0.457783 -6.90334 -1.7348 1.02764 -5.54882 -25.0917 -8.40575 
-45.0285 94.8883 61.8015 45.3498 64.5294 47.8807 -70.1915 0 88.8779 154.477 51.2469 -63.9462 -9.5672 20.2937 7.39942 -154.398 28.632 158.68 -136.823 64.0653 156.546 0.202372 -16.1666 -23.7774 -93.8732 4.89634 -149.005 7.76184 11.6404 -25.5098 20.7641 -0.208215 0.55313 -0.4025 4.79179 24.0119 -102.862 -7.84895 144.92 -6.31525 -12.3851 8.36348 10.7225 0.195602 1.84823 -45.4756 -6.04396 70.2487 -5.72202 64.6266 0.503458 11.1714 10.8599 -1.72142 -44.4847 -63.3491 -22.6474 -1.37975 -7.1533 93.6013 2.0194 47.1107 0.0713667 -5.76781 -0.21323 0.874279 -2.1087 -11.6289 -0.957847 
-39.5556 97.8734 56.4498 37.7719 66.0902 58.2118 -70.1915 0 88.8779 153.629 52.255 -59.9599 -11.6366 18.6529 8.80282 -150.057 28.8174 157.153 -136.893 65.1101 157.118 0.431961 -15.9857 -19.9729 -101.123 10.9128 -151.891 15.551 17.6803 -37.7612 19.5909 -0.363674 -0.402319 -0.0914637 4.0207 18.678 -99.9745 2.41946 140.504 -5.25697 -3.94799 12.9489 10.9262 0.177246 1.60073 -52.0553 -0.823669 65.7003 -4.21761 56.8122 -4.04218 8.56888 8.95468 -1.16332 -36.6867 -60.555 -14.4506 1.93282 -11.9719 91.0172 2.25898 48.8569 0.378161 -6.47793 0.351189 0.951033 -1.37165 -7.19202 0.718452 
-33.877 101.914 50.1682 33.6429 66.2133 64.3334 -70.1915 0 88.8779 152.068 53.6499 -54.8207 -13.4072 17.5449 8.47989 -143.836 28.0986 156.206 -137.644 65.5804 158.115 0.614477 -14.6207 -18.7201 -105.193 12.5619 -151.624 21.4588 16.3036 -51.1054 19.0483 -0.22129 0.370754 0.0334023 4.22359 15.4788 -95.8447 9.12156 134.381 -4.4247 4.00905 17.0043 10.4928 0.20295 1.985 -60.3453 5.71607 63.6148 -2.6719 44.7048 -6.47352 5.87963 6.26216 -0.690216 -23.8261 -50.6648 -2.82339 3.98463 -15.0648 88.4752 2.88944 52.9314 0.943122 -5.52816 2.21006 0.789694 0.0119205 1.53154 1.66581 
